<svg version="1.2" baseProfile="tiny-ps" xmlns="http://www.w3.org/2000/svg" viewBox="0 0 86 64" width="86" height="64">
	<title>WHAT WE DO</title>
	<style>
		tspan { white-space:pre }
		.shp0 { fill: #3172b9 } 
	</style>
	<g id="WHAT WE DO">
		<g id="Health">
			<path id="icon" class="shp0" d="M79.62 20.27C79.62 25.69 77.52 30.78 73.69 34.61L44.97 63.37C44.55 63.79 44.01 64 43.46 64C42.92 64 42.37 63.79 41.96 63.37L13.23 34.61C5.34 26.7 5.34 13.84 13.23 5.94C17.06 2.11 22.14 0 27.54 0C32.95 0 38.03 2.11 41.86 5.94L43.46 7.55L45.07 5.94C48.89 2.11 53.98 0 59.38 0C64.79 0 69.87 2.11 73.69 5.94C77.52 9.77 79.62 14.86 79.62 20.27ZM70.68 31.59L43.46 58.84L16.25 31.59C10.02 25.35 10.02 15.2 16.25 8.96C19.27 5.94 23.28 4.27 27.54 4.27C31.81 4.27 35.82 5.94 38.84 8.96L41.96 12.08C42.79 12.91 44.14 12.91 44.97 12.08L48.08 8.96C51.1 5.94 55.11 4.27 59.38 4.27C63.65 4.27 67.66 5.94 70.68 8.96C76.91 15.2 76.91 25.35 70.68 31.59ZM12.08 29.12C12.08 30.3 11.13 31.25 9.95 31.25L2.13 31.25C0.95 31.25 0 30.3 0 29.12C0 27.94 0.95 26.98 2.13 26.98L9.95 26.98C11.13 26.98 12.08 27.94 12.08 29.12ZM78.18 28.47C78.18 29.26 77.84 29.83 77.06 29.83L55.74 29.83C55.18 29.83 54.37 29.57 54.14 29.06L52.05 24.44L45.4 43.19C45.2 43.76 44.67 44.13 44.07 44.14C44.07 44.14 44.07 44.14 44.07 44.14C43.47 44.14 42.93 43.76 42.73 43.2L34.65 20.8L30.43 29.79C30.19 30.29 29.99 30.54 29.44 30.54L10.96 30.54C10.17 30.54 9.24 29.97 9.24 29.19C9.24 28.4 9.88 27.76 10.66 27.76L28.24 27.76L33.54 16.48C33.78 15.96 34.28 15.63 34.89 15.66C35.47 15.69 35.97 16.06 36.16 16.6L44.05 38.49L50.54 20.17C50.74 19.62 51.24 19.25 51.82 19.22C52.42 19.21 52.94 19.53 53.18 20.06L56.35 27.05L76.76 27.05C77.54 27.05 78.18 27.69 78.18 28.47ZM86 28.41C86 29.59 85.05 30.54 83.87 30.54L77.47 30.54C76.29 30.54 75.34 29.59 75.34 28.41C75.34 27.23 76.29 26.27 77.47 26.27L83.87 26.27C85.05 26.27 86 27.23 86 28.41Z" />
		</g>
	</g>
</svg>