<svg version="1.2" baseProfile="tiny-ps" xmlns="http://www.w3.org/2000/svg" viewBox="0 0 68 66" width="68" height="66">
	<title>WHAT WE DO</title>
	<style>
		tspan { white-space:pre }
		.shp0 { fill: #3172b9 } 
	</style>
	<g id="WHAT WE DO">
		<g id="Legacy">
			<path id="icon" class="shp0" d="M67.99 18.29C67.75 28.17 59.46 36.02 49.5 35.8L18.38 35.13C11.17 34.97 5.16 40.66 4.98 47.81C4.8 54.96 10.52 60.91 17.73 61.07C24.94 61.22 30.95 55.53 31.13 48.38L31.25 43.46C31.29 42.11 32.43 41.02 33.8 41.05C35.17 41.08 36.26 42.22 36.22 43.57L36.1 48.49C35.85 58.36 27.56 66.21 17.61 66C7.65 65.78 -0.24 57.58 0.01 47.7C0.25 37.83 8.54 29.98 18.5 30.2L49.62 30.87C56.83 31.03 62.84 25.34 63.02 18.19C63.2 11.04 57.48 5.09 50.27 4.93C43.06 4.78 37.05 10.47 36.87 17.62L36.75 22.59C36.71 23.95 35.57 25.03 34.2 25C32.83 24.97 31.74 23.84 31.78 22.48L31.9 17.51C32.15 7.64 40.44 -0.21 50.39 0C60.35 0.22 68.24 8.42 67.99 18.29Z" />
		</g>
	</g>
</svg>