<svg version="1.2" baseProfile="tiny-ps" xmlns="http://www.w3.org/2000/svg" viewBox="0 0 115 44" width="115" height="44">
	<title>HEADER</title>
	<style>
		tspan { white-space:pre }
		.shp0 { fill: #3172b9 } 
	</style>
	<g id="HEADER">
		<path id="Logo" class="shp0" d="M0 25.44L0 0.33L3.22 0.33L3.22 22.17L12.14 22.17L12.14 25.44L0 25.44ZM21.01 0.33L21.01 25.44L17.78 25.44L17.78 0.33L21.01 0.33ZM49 3.76C51.5 6.28 52.74 9.3 52.74 12.85C52.74 16.4 51.5 19.43 49 21.94C46.51 24.45 43.5 25.71 39.98 25.71C36.46 25.71 33.45 24.45 30.96 21.94C28.47 19.43 27.22 16.4 27.22 12.85C27.22 9.3 28.47 6.28 30.96 3.76C33.45 1.25 36.46 0 39.98 0C43.5 0 46.51 1.25 49 3.76ZM39.98 3.28C37.35 3.28 35.11 4.21 33.26 6.08C31.4 7.95 30.48 10.2 30.48 12.85C30.48 15.5 31.41 17.76 33.26 19.63C35.12 21.51 37.36 22.44 39.98 22.44C42.61 22.44 44.85 21.51 46.71 19.63C48.56 17.76 49.49 15.5 49.49 12.85C49.49 10.2 48.56 7.95 46.71 6.08C44.85 4.21 42.61 3.28 39.98 3.28ZM58.64 0.33L61.58 0.33L71.87 18.25L71.87 0.33L75.11 0.33L75.11 25.44L72.29 25.44L61.87 7.3L61.87 25.44L58.64 25.44L58.64 0.33ZM84.92 0.33L84.92 25.44L81.69 25.44L81.69 0.33L84.92 0.33ZM110.81 19.46L113.22 21.64C110.27 24.35 107.15 25.71 103.86 25.71C100.34 25.71 97.33 24.46 94.85 21.96C92.37 19.45 91.13 16.43 91.13 12.88C91.13 9.35 92.37 6.32 94.85 3.81C97.33 1.3 100.34 0.04 103.86 0.04C107.15 0.04 110.27 1.4 113.22 4.11L110.81 6.32C108.59 4.33 106.27 3.34 103.86 3.34C101.25 3.34 99.02 4.27 97.16 6.13C95.31 8 94.38 10.25 94.38 12.88C94.38 15.53 95.31 17.79 97.16 19.65C99.02 21.51 101.25 22.44 103.86 22.44C106.27 22.44 108.59 21.45 110.81 19.46ZM52.98 40.86L56.32 40.86L56.32 41.54L52.25 41.54L52.25 34.31L52.98 34.31L52.98 40.86ZM57.54 39.33C57.56 39.57 57.62 39.79 57.71 40.01C57.81 40.22 57.93 40.4 58.09 40.55C58.24 40.7 58.42 40.83 58.62 40.91C58.83 41 59.04 41.05 59.28 41.05C59.64 41.05 59.95 40.96 60.21 40.8C60.47 40.63 60.67 40.44 60.8 40.22L61.32 40.65C61.04 41.01 60.72 41.27 60.38 41.43C60.04 41.58 59.67 41.66 59.28 41.66C58.93 41.66 58.6 41.6 58.3 41.47C58 41.34 57.74 41.17 57.53 40.95C57.31 40.72 57.14 40.46 57.02 40.15C56.89 39.84 56.83 39.51 56.83 39.15C56.83 38.79 56.89 38.45 57.01 38.15C57.13 37.84 57.3 37.58 57.52 37.35C57.73 37.13 57.99 36.95 58.28 36.83C58.57 36.7 58.88 36.64 59.22 36.64C59.58 36.64 59.9 36.7 60.18 36.83C60.47 36.96 60.71 37.13 60.9 37.35C61.09 37.56 61.24 37.81 61.34 38.1C61.44 38.39 61.49 38.7 61.49 39.03L61.49 39.33L57.54 39.33ZM60.76 38.78C60.76 38.33 60.63 37.96 60.36 37.67C60.09 37.39 59.71 37.25 59.22 37.25C59 37.25 58.79 37.29 58.59 37.38C58.39 37.46 58.21 37.58 58.06 37.72C57.91 37.86 57.79 38.03 57.7 38.21C57.6 38.39 57.56 38.58 57.56 38.78L60.76 38.78ZM63.07 42.5C63.27 42.76 63.52 42.97 63.84 43.14C64.15 43.3 64.5 43.38 64.89 43.38C65.22 43.38 65.51 43.33 65.75 43.23C65.98 43.13 66.18 42.99 66.32 42.82C66.47 42.65 66.57 42.45 66.64 42.23C66.7 42 66.73 41.76 66.73 41.5L66.73 40.64L66.71 40.64C66.49 40.97 66.23 41.2 65.92 41.33C65.61 41.47 65.28 41.54 64.94 41.54C64.59 41.54 64.27 41.48 63.97 41.35C63.67 41.23 63.41 41.06 63.18 40.85C62.96 40.63 62.79 40.38 62.66 40.08C62.53 39.78 62.46 39.45 62.46 39.11C62.46 38.76 62.53 38.44 62.65 38.14C62.77 37.84 62.94 37.58 63.15 37.35C63.36 37.13 63.61 36.95 63.91 36.83C64.2 36.7 64.53 36.64 64.88 36.64C65.02 36.64 65.17 36.65 65.33 36.68C65.49 36.71 65.65 36.75 65.8 36.82C65.96 36.89 66.12 36.98 66.28 37.1C66.43 37.22 66.58 37.37 66.71 37.56L66.73 37.56L66.73 36.76L67.4 36.76L67.4 41.5C67.4 41.76 67.37 42.03 67.3 42.32C67.24 42.62 67.12 42.89 66.93 43.13C66.74 43.38 66.48 43.58 66.15 43.74C65.82 43.91 65.39 43.99 64.86 43.99C64.38 43.99 63.96 43.91 63.59 43.75C63.22 43.6 62.88 43.36 62.58 43.03L63.07 42.5ZM63.19 39.09C63.19 39.34 63.24 39.58 63.33 39.8C63.42 40.02 63.55 40.21 63.71 40.38C63.86 40.55 64.05 40.68 64.26 40.78C64.48 40.88 64.71 40.92 64.96 40.92C65.2 40.92 65.43 40.88 65.65 40.79C65.87 40.7 66.07 40.58 66.23 40.42C66.4 40.26 66.53 40.07 66.63 39.84C66.72 39.62 66.76 39.37 66.75 39.09C66.75 38.84 66.71 38.6 66.63 38.38C66.55 38.16 66.43 37.96 66.28 37.8C66.12 37.63 65.93 37.5 65.71 37.4C65.48 37.3 65.24 37.25 64.96 37.25C64.71 37.25 64.48 37.3 64.26 37.4C64.05 37.5 63.86 37.63 63.71 37.8C63.55 37.96 63.42 38.16 63.33 38.38C63.24 38.6 63.19 38.84 63.19 39.09ZM71.94 38.61L71.94 38.48C71.94 37.66 71.54 37.25 70.73 37.25C70.17 37.25 69.69 37.44 69.28 37.81L68.87 37.33C69.32 36.87 69.99 36.64 70.88 36.64C71.11 36.64 71.33 36.67 71.54 36.74C71.75 36.81 71.94 36.91 72.09 37.05C72.25 37.19 72.37 37.36 72.47 37.58C72.56 37.79 72.61 38.04 72.61 38.33L72.61 40.47C72.61 40.65 72.62 40.84 72.64 41.04C72.65 41.24 72.67 41.41 72.69 41.54L72.04 41.54C72.02 41.42 72.01 41.3 72 41.16C71.99 41.02 71.98 40.89 71.98 40.76L71.96 40.76C71.77 41.08 71.53 41.31 71.27 41.45C71 41.59 70.67 41.66 70.29 41.66C70.08 41.66 69.88 41.63 69.68 41.57C69.49 41.52 69.31 41.43 69.16 41.31C69.01 41.19 68.89 41.04 68.79 40.87C68.7 40.7 68.66 40.49 68.66 40.26C68.66 39.87 68.76 39.57 68.96 39.35C69.16 39.13 69.41 38.96 69.71 38.85C70.01 38.74 70.33 38.68 70.67 38.65C71.01 38.62 71.32 38.61 71.61 38.61L71.94 38.61ZM71.6 39.16C71.43 39.16 71.22 39.17 70.96 39.18C70.71 39.2 70.47 39.24 70.23 39.31C70 39.37 69.8 39.47 69.64 39.61C69.47 39.74 69.39 39.93 69.39 40.17C69.39 40.33 69.42 40.46 69.48 40.57C69.55 40.68 69.63 40.78 69.74 40.85C69.85 40.92 69.97 40.97 70.1 41C70.23 41.03 70.37 41.05 70.5 41.05C70.75 41.05 70.96 41.01 71.14 40.92C71.31 40.84 71.47 40.73 71.59 40.59C71.71 40.45 71.8 40.29 71.86 40.1C71.91 39.92 71.94 39.72 71.94 39.51L71.94 39.16L71.6 39.16ZM74.98 41.54L74.31 41.54L74.31 33.82L74.98 33.82L74.98 41.54ZM83.05 35.5C82.73 35.03 82.27 34.8 81.66 34.8C81.47 34.8 81.29 34.82 81.11 34.88C80.92 34.93 80.76 35.01 80.61 35.11C80.47 35.22 80.35 35.35 80.26 35.52C80.18 35.69 80.13 35.88 80.13 36.11C80.13 36.43 80.22 36.69 80.41 36.87C80.59 37.05 80.81 37.2 81.08 37.31C81.36 37.43 81.65 37.53 81.97 37.62C82.29 37.71 82.59 37.84 82.86 37.99C83.13 38.14 83.36 38.35 83.54 38.6C83.72 38.85 83.81 39.19 83.81 39.63C83.81 39.96 83.74 40.25 83.6 40.51C83.47 40.77 83.28 40.99 83.06 41.17C82.83 41.35 82.58 41.48 82.3 41.58C82.02 41.67 81.73 41.72 81.45 41.72C81.01 41.72 80.59 41.64 80.2 41.47C79.8 41.3 79.47 41.03 79.19 40.65L79.86 40.17C80.01 40.43 80.23 40.65 80.51 40.81C80.78 40.97 81.11 41.05 81.49 41.05C81.67 41.05 81.85 41.02 82.03 40.96C82.21 40.9 82.38 40.82 82.52 40.7C82.67 40.59 82.79 40.46 82.88 40.29C82.97 40.13 83.02 39.94 83.02 39.73C83.02 39.48 82.97 39.27 82.86 39.1C82.76 38.94 82.62 38.8 82.45 38.68C82.28 38.57 82.08 38.48 81.86 38.4C81.64 38.33 81.41 38.25 81.18 38.18C80.95 38.1 80.72 38.02 80.5 37.92C80.28 37.83 80.09 37.71 79.91 37.56C79.74 37.41 79.6 37.23 79.5 37.01C79.39 36.79 79.34 36.51 79.34 36.18C79.34 35.83 79.41 35.53 79.54 35.27C79.67 35.01 79.85 34.8 80.07 34.63C80.29 34.46 80.53 34.33 80.81 34.25C81.09 34.17 81.37 34.12 81.66 34.12C82.07 34.12 82.44 34.19 82.77 34.32C83.1 34.45 83.41 34.68 83.69 35L83.05 35.5ZM89.84 39.15C89.84 39.51 89.78 39.84 89.65 40.15C89.53 40.46 89.36 40.72 89.13 40.95C88.91 41.17 88.65 41.34 88.34 41.47C88.03 41.6 87.69 41.66 87.32 41.66C86.95 41.66 86.62 41.6 86.31 41.47C86 41.34 85.74 41.17 85.51 40.95C85.29 40.72 85.12 40.46 84.99 40.15C84.87 39.84 84.81 39.51 84.81 39.15C84.81 38.79 84.87 38.45 84.99 38.15C85.12 37.84 85.29 37.58 85.51 37.35C85.74 37.13 86 36.95 86.31 36.83C86.62 36.7 86.95 36.64 87.32 36.64C87.69 36.64 88.03 36.7 88.34 36.83C88.65 36.95 88.91 37.13 89.13 37.35C89.36 37.58 89.53 37.84 89.65 38.15C89.78 38.45 89.84 38.79 89.84 39.15ZM89.11 39.15C89.11 38.88 89.07 38.63 88.99 38.4C88.9 38.17 88.78 37.97 88.63 37.8C88.47 37.63 88.28 37.5 88.06 37.4C87.84 37.3 87.6 37.25 87.32 37.25C87.04 37.25 86.79 37.3 86.57 37.4C86.35 37.5 86.17 37.63 86.02 37.8C85.86 37.97 85.75 38.17 85.66 38.4C85.58 38.63 85.53 38.88 85.53 39.15C85.53 39.41 85.58 39.66 85.66 39.89C85.75 40.12 85.86 40.33 86.02 40.5C86.17 40.67 86.35 40.8 86.57 40.9C86.79 41 87.04 41.05 87.32 41.05C87.6 41.05 87.84 41 88.06 40.9C88.28 40.8 88.47 40.67 88.63 40.5C88.78 40.33 88.9 40.12 88.99 39.89C89.07 39.66 89.11 39.41 89.11 39.15ZM91.88 41.54L91.21 41.54L91.21 33.82L91.88 33.82L91.88 41.54ZM96.92 41.54C96.9 41.41 96.9 41.28 96.89 41.15C96.89 41.03 96.89 40.9 96.89 40.77L96.87 40.77C96.79 40.9 96.7 41.02 96.58 41.13C96.47 41.24 96.34 41.33 96.2 41.41C96.06 41.49 95.91 41.55 95.75 41.59C95.59 41.64 95.43 41.66 95.28 41.66C94.67 41.66 94.22 41.5 93.93 41.18C93.64 40.85 93.49 40.39 93.49 39.79L93.49 36.76L94.16 36.76L94.16 39.4C94.16 39.67 94.18 39.9 94.22 40.11C94.26 40.31 94.33 40.48 94.43 40.62C94.53 40.76 94.66 40.87 94.82 40.94C94.99 41.01 95.2 41.05 95.45 41.05C95.48 41.05 95.58 41.03 95.73 41.01C95.89 40.98 96.05 40.9 96.22 40.78C96.4 40.66 96.55 40.48 96.68 40.23C96.82 39.99 96.89 39.64 96.89 39.21L96.89 36.76L97.56 36.76L97.56 40.49C97.56 40.62 97.56 40.78 97.57 40.98C97.58 41.17 97.59 41.36 97.61 41.54L96.92 41.54ZM101.58 37.37L100.21 37.37L100.21 40.19C100.21 40.37 100.23 40.51 100.26 40.62C100.3 40.74 100.34 40.82 100.41 40.88C100.47 40.95 100.54 40.99 100.62 41.01C100.71 41.04 100.8 41.05 100.9 41.05C101.02 41.05 101.14 41.03 101.26 41C101.38 40.96 101.49 40.92 101.59 40.86L101.62 41.49C101.37 41.6 101.07 41.66 100.72 41.66C100.59 41.66 100.46 41.64 100.32 41.61C100.18 41.57 100.05 41.51 99.94 41.41C99.82 41.32 99.73 41.19 99.65 41.03C99.58 40.86 99.54 40.65 99.54 40.38L99.54 37.37L98.54 37.37L98.54 36.76L99.54 36.76L99.54 35.41L100.21 35.41L100.21 36.76L101.58 36.76L101.58 37.37ZM103.47 34.92C103.47 35.06 103.42 35.18 103.31 35.27C103.21 35.37 103.1 35.41 102.98 35.41C102.86 35.41 102.75 35.37 102.64 35.27C102.54 35.18 102.49 35.06 102.49 34.92C102.49 34.78 102.54 34.66 102.64 34.57C102.75 34.48 102.86 34.43 102.98 34.43C103.1 34.43 103.21 34.48 103.31 34.57C103.42 34.66 103.47 34.78 103.47 34.92ZM103.31 41.54L102.64 41.54L102.64 36.76L103.31 36.76L103.31 41.54ZM109.72 39.15C109.72 39.51 109.66 39.84 109.53 40.15C109.41 40.46 109.23 40.72 109.01 40.95C108.79 41.17 108.52 41.34 108.21 41.47C107.91 41.6 107.57 41.66 107.2 41.66C106.83 41.66 106.49 41.6 106.19 41.47C105.88 41.34 105.61 41.17 105.39 40.95C105.17 40.72 105 40.46 104.87 40.15C104.74 39.84 104.68 39.51 104.68 39.15C104.68 38.79 104.74 38.45 104.87 38.15C105 37.84 105.17 37.58 105.39 37.35C105.61 37.13 105.88 36.95 106.19 36.83C106.49 36.7 106.83 36.64 107.2 36.64C107.57 36.64 107.91 36.7 108.21 36.83C108.52 36.95 108.79 37.13 109.01 37.35C109.23 37.58 109.41 37.84 109.53 38.15C109.66 38.45 109.72 38.79 109.72 39.15ZM108.99 39.15C108.99 38.88 108.95 38.63 108.86 38.4C108.78 38.17 108.66 37.97 108.5 37.8C108.35 37.63 108.16 37.5 107.94 37.4C107.72 37.3 107.47 37.25 107.2 37.25C106.92 37.25 106.67 37.3 106.45 37.4C106.23 37.5 106.05 37.63 105.89 37.8C105.74 37.97 105.62 38.17 105.54 38.4C105.45 38.63 105.41 38.88 105.41 39.15C105.41 39.41 105.45 39.66 105.54 39.89C105.62 40.12 105.74 40.33 105.89 40.5C106.05 40.67 106.23 40.8 106.45 40.9C106.67 41 106.92 41.05 107.2 41.05C107.47 41.05 107.72 41 107.94 40.9C108.16 40.8 108.35 40.67 108.5 40.5C108.66 40.33 108.78 40.12 108.86 39.89C108.95 39.66 108.99 39.41 108.99 39.15ZM111.57 36.76C111.59 36.89 111.6 37.02 111.6 37.14C111.6 37.27 111.61 37.4 111.61 37.53L111.62 37.53C111.7 37.4 111.79 37.28 111.91 37.17C112.02 37.06 112.15 36.97 112.29 36.89C112.44 36.81 112.59 36.75 112.75 36.7C112.9 36.66 113.06 36.64 113.22 36.64C113.82 36.64 114.27 36.8 114.56 37.12C114.86 37.44 115 37.91 115 38.5L115 41.54L114.33 41.54L114.33 38.89C114.33 38.36 114.24 37.96 114.06 37.67C113.88 37.39 113.54 37.25 113.04 37.25C113.01 37.25 112.92 37.26 112.76 37.29C112.6 37.32 112.44 37.39 112.27 37.51C112.1 37.64 111.94 37.82 111.81 38.07C111.67 38.31 111.61 38.65 111.61 39.09L111.61 41.54L110.94 41.54L110.94 37.81C110.94 37.68 110.93 37.52 110.92 37.32C110.91 37.12 110.9 36.94 110.88 36.76L111.57 36.76ZM42.98 38.73L0 38.73L0 37.38L42.98 37.38L42.98 38.73Z" />
	</g>
</svg>